<?xml version="1.0" standalone="no"?>
<!DOCTYPE svg PUBLIC "-//W3C//DTD SVG 20010904//EN"
 "http://www.w3.org/TR/2001/REC-SVG-20010904/DTD/svg10.dtd">
<svg version="1.0" xmlns="http://www.w3.org/2000/svg"
 width="512.000000pt" height="512.000000pt" viewBox="0 0 512.000000 512.000000"
 preserveAspectRatio="xMidYMid meet">

<g transform="translate(0.000000,512.000000) scale(0.100000,-0.100000)"
fill="#000000" stroke="none">
<path d="M2361 5110 c-372 -31 -747 -146 -1058 -323 -1005 -574 -1501 -1728
-1223 -2847 152 -613 526 -1145 1057 -1503 593 -401 1348 -533 2043 -357 839
212 1511 826 1795 1641 214 616 184 1291 -86 1893 -356 795 -1125 1367 -1989
1480 -148 19 -406 27 -539 16z m409 -980 c108 -36 189 -87 276 -174 87 -88
137 -166 175 -281 l24 -70 0 -560 0 -560 -27 -76 c-40 -113 -92 -195 -177
-279 -125 -124 -308 -200 -481 -200 -277 0 -541 181 -643 440 -47 119 -49 150
-45 715 4 524 4 531 27 595 39 111 89 190 175 276 88 88 172 140 276 173 93
29 103 30 235 26 90 -2 136 -8 185 -25z m-1048 -1009 l33 -29 6 -304 c6 -338
10 -361 79 -506 89 -187 240 -328 429 -401 109 -42 194 -54 335 -49 101 4 136
10 208 35 215 74 376 219 472 424 65 136 69 163 75 497 l6 304 33 29 c39 35
87 38 125 9 46 -36 50 -69 44 -369 -4 -257 -6 -283 -31 -376 -85 -326 -312
-580 -623 -701 l-73 -28 0 -248 0 -248 76 0 c70 0 78 -2 105 -29 41 -41 41
-101 0 -142 l-29 -29 -432 0 -432 0 -29 29 c-41 41 -41 101 0 142 27 27 35 29
105 29 l76 0 0 248 0 248 -72 28 c-359 139 -601 451 -648 836 -16 131 -13 523
4 564 29 70 102 87 158 37z"/>
<path d="M2495 3954 c-179 -27 -331 -153 -397 -330 -22 -57 -22 -73 -26 -527
-4 -530 0 -574 55 -687 174 -358 692 -358 866 0 55 113 59 157 55 687 -4 454
-4 470 -26 527 -55 147 -165 257 -306 306 -57 19 -168 31 -221 24z"/>
<path d="M2490 1390 l0 -230 70 0 70 0 0 230 0 230 -70 0 -70 0 0 -230z"/>
</g>
</svg>
